<svg width="54" height="53" viewBox="0 0 54 53" fill="none" xmlns="http://www.w3.org/2000/svg"><path fill-rule="evenodd" clip-rule="evenodd" d="M53.494 36.132c0 2.142-1.673 3.885-3.789 4.064.348.6.563 1.286.563 2.026 0 2.143-1.673 3.886-3.789 4.065.348.6.563 1.285.563 2.026 0 2.26-1.856 4.099-4.138 4.099h-17.48a4.042 4.042 0 01-2.862-1.193l-3.06-3.098a1.427 1.427 0 00-1.012-.421v-2.108c.947 0 1.87.385 2.532 1.055l3.061 3.099c.351.355.84.559 1.341.559h17.48a2.004 2.004 0 002.011-1.992 2.004 2.004 0 00-2.01-1.992h-4.191v-2.107h7.417c1.108 0 2.01-.893 2.01-1.992a2.003 2.003 0 00-2.01-1.991h-7.416v-2.108h10.641a2.003 2.003 0 002.011-1.991 2.004 2.004 0 00-2.01-1.993H38.714v-2.107h9.427c1.108 0 2.01-.893 2.01-1.992a2.004 2.004 0 00-2.01-1.992H27.47l.578-1.443a49.1 49.1 0 00.537-1.419h-.282l.386-.962c.014-.035.793-1.988 1.475-4.195.206-.899.344-1.726.344-2.351 0-.275.012-.602.025-.964.041-1.099.106-2.892-.305-3.76-.343-.093-1.06-.103-1.457-.026-.549 1.648-2.464 7.22-3.903 9.172-.882 1.195-4.264 5.538-4.264 5.538l-.319.41h-2.11v19.023c0 1.975-1.624 3.583-3.617 3.583H.011v-2.108h14.547c.821 0 1.49-.661 1.49-1.475V26.216c0-.814-.669-1.475-1.49-1.475h-3.753v-2.108h3.753a3.597 3.597 0 013.588 3.307h1.093c.86-1.104 3.202-4.121 3.911-5.083 1.185-1.607 3.092-7.021 3.727-8.971l.122-.254c.383-.579 1.208-.85 2.47-.863 1.258.007 2.086.305 2.463.888.867 1.341.785 3.533.727 5.134-.013.332-.024.634-.024.886.002 2.272-1.295 6.161-2.062 8.263h17.57c2.28 0 4.136 1.84 4.136 4.1 0 .961-.349 1.833-.909 2.533 1.261.703 2.124 2.026 2.124 3.559zM39.07 16.275l.377-2.075 3.914.697-.377 2.075-3.914-.697zm.382-3.47l-.365-2.076 1.945-.337.366 2.076-1.946.337zm-1.903-5.216l3.448-1.964 1.06 1.828-3.448 1.964-1.06-1.828zM35.001 5.18l1.225-1.508 1.657 1.322-1.224 1.507-1.658-1.321zm3.581 12.404l1.618.934-1.07 1.821-1.619-.934 1.071-1.821zm-3.617 4.233l1.636-1.347 2.542 3.03-1.636 1.348-2.542-3.031zM31.8 3.741L33.161.039l2 .722-1.364 3.702-1.998-.722zm-3.515-2.213h2.128v1.97h-2.128v-1.97zm-4.59-.836L25.7-.006l1.318 3.717-2.007.699L23.693.692zM22.16 6.456L20.9 5.027l1.6-1.388 1.261 1.43-1.6 1.387zm-2.02 2.849l-3.424-2.004 1.082-1.814 3.423 2.004-1.08 1.814zm-2.526 1.078l1.955.218-.237 2.093-1.955-.217.237-2.094zm3.45 8.95l-1.73.854-.95-1.887 1.731-.854.948 1.887zm-5.744-4.604l3.923-.65.352 2.079-3.923.65-.352-2.079zM4.411 22.634h3.83v2.107h-3.83v-2.107zm-4.4-.001h3.361v2.108H.012v-2.108z" fill="#F9BB00"/></svg>