<svg width="48" height="53" viewBox="0 0 48 53" fill="none" xmlns="http://www.w3.org/2000/svg"><path fill-rule="evenodd" clip-rule="evenodd" d="M28.582 52.858a.957.957 0 01-.961-.957c0-2.634-2.077-3.991-4.44-3.991-2.373 0-4.434 1.383-4.434 3.884a.959.959 0 01-.961.958h-6.557c-.619 0-1.081-.585-.931-1.17.446-1.81.758-3.193-.275-4.576l-.492-.586-1.03-.718a16.598 16.598 0 01-4.256-4.655l-.902-1.623H.956a.956.956 0 01-.955-.958v-9.63c0-.506.403-.931.91-.958l2.107-.106 1.444-1.969a23.562 23.562 0 012.83-2.846l.143-.107-.536-.824a21.202 21.202 0 01-1.994-4.363.969.969 0 01.518-1.171c1.428-.638 3.166-.718 4.778-.345l.348.106-.382-1.729a.95.95 0 01.777-1.144c2.856-.506 6.19 1.197 8.049 3.857l.114.266.895-.16c7.384-1.09 14.816.879 18.887 5.268.502.559.967 1.144 1.383 1.782l.377.612.347-.026c.435.053.803 0 1.108-.133l.205-.107-.189-.186a4.49 4.49 0 01-.294-.319c-.382-.479-.737-1.118-.809-1.783-.08-.744.216-1.462.959-1.942a2.448 2.448 0 011.249-.452c.512 0 .964.186 1.305.506.724.665.876 1.862.681 2.926l-.088.372.28-.346c.499-.771.521-1.596.331-2.367a4.712 4.712 0 00-.622-1.41c-.275-.399-.504-.612-.563-.638l-.157-.081c-.356-.265-.494-.771-.297-1.17a.98.98 0 011.279-.479c.04.027.085.054.128.08.441.239.87.718 1.212 1.25a6.38 6.38 0 01.886 1.995c.393 1.597.174 3.512-1.641 5.002-.313.266-.678.346-1.002.372-.28 0-.571-.053-.859-.159l-.123-.053-.067.079a3.74 3.74 0 01-1.908.931l-.406.027.115.266c2.48 6.119 1.695 14.339-3.866 19.101l-1.255.931-.304.798c-.272 1.011-.224 2.128.245 3.618a.966.966 0 01-.918 1.25h-7.029zm5.817-1.915l-.107-.452c-.243-1.597-.021-2.953.633-4.31.077-.16.192-.293.339-.399 7.51-4.868 7.307-16.361 2.213-21.867-6.815-7.369-25.129-7.237-33.146 5.294-.165.266-.451.451-.758.451l-1.65.081v7.768h1.986c.371 0 .705.212.865.532 1.351 2.766 3.057 5.027 5.919 6.863.053.027.104.08.155.133 1.855 1.836 1.951 3.724 1.671 5.4l-.094.399h4.504l.045-.425c.681-2.98 3.564-4.416 6.207-4.416 2.659 0 5.534 1.436 6.21 4.496l.051.452h4.957zM7.999 29.98c-.093 0-.19 0-.286-.053a.958.958 0 01-.63-1.197c.153-.453.396-1.011.868-1.437.238-.213.526-.372.852-.505.325-.107.678-.16 1.051-.16.534 0 .97.426.97.958a.956.956 0 01-.962.957c-.202 0-.339.027-.432.08a.416.416 0 00-.201.107c-.101.08-.21.265-.312.585a.962.962 0 01-.918.665zm11.581-6.89a.96.96 0 01-.953-.745.95.95 0 01.734-1.144c3.476-.771 6.53-.506 9.41 0 .524.08.876.585.783 1.091a.932.932 0 01-1.108.771c-2.758-.452-5.54-.691-8.679 0-.059.027-.126.027-.187.027zm23.76-.053l.029-.24a2.36 2.36 0 000-.266 1.242 1.242 0 00-.08-.425l-.054-.107c-.053.027-.122.053-.216.107-.109.079-.096.106-.09.159.018.16.125.426.403.772h.008zM8.979 21.68l.406-.293a25.54 25.54 0 012.223-1.33l1.058-.505-.561-.506a6.148 6.148 0 00-1.813-.878c-1.046-.319-2.17-.425-3.15-.239l-.088.027.171.452c.27.665.582 1.33.945 1.995l.809 1.277zm5.537-2.9l.606-.239c.4-.133.806-.266 1.206-.373l.761-.212-.723-.825c-1.167-1.091-2.606-1.756-3.927-1.889l-.147-.027.419 1.942.045.027c.713.426 1.314.958 1.741 1.57l.019.026zm9.6-4.868c-3.858 0-6.984-3.113-6.984-6.97 0-3.831 3.126-6.943 6.984-6.943 3.855 0 6.983 3.112 6.983 6.943 0 3.857-3.128 6.97-6.983 6.97zm0-2.155c2.667 0 4.832-2.155 4.832-4.815 0-2.634-2.165-4.815-4.832-4.815s-4.832 2.181-4.832 4.815c0 2.66 2.165 4.815 4.832 4.815z" fill="#F9BB00"/></svg>