<svg width="136" height="230" viewBox="0 0 136 230" fill="none" xmlns="http://www.w3.org/2000/svg"><circle cx="5.829" cy="5.829" r="5.829" fill="#F0F0F0"/><circle cx="5.829" cy="36.914" r="5.829" fill="#F0F0F0"/><circle cx="5.829" cy="68" r="5.829" fill="#F0F0F0"/><circle cx="5.829" cy="99.086" r="5.829" fill="#F0F0F0"/><circle cx="5.829" cy="130.171" r="5.829" fill="#F0F0F0"/><circle cx="5.829" cy="161.257" r="5.829" fill="#F0F0F0"/><circle cx="5.829" cy="192.343" r="5.829" fill="#F0F0F0"/><circle cx="5.829" cy="223.429" r="5.829" fill="#F0F0F0"/><circle cx="36.914" cy="5.829" r="5.829" fill="#F0F0F0"/><circle cx="36.914" cy="36.914" r="5.829" fill="#F0F0F0"/><circle cx="36.914" cy="68" r="5.829" fill="#F0F0F0"/><circle cx="36.914" cy="99.086" r="5.829" fill="#F0F0F0"/><circle cx="36.914" cy="130.171" r="5.829" fill="#F0F0F0"/><circle cx="36.914" cy="161.257" r="5.829" fill="#F0F0F0"/><circle cx="36.914" cy="192.343" r="5.829" fill="#F0F0F0"/><circle cx="36.914" cy="223.429" r="5.829" fill="#F0F0F0"/><circle cx="68" cy="5.829" r="5.829" fill="#F0F0F0"/><circle cx="68" cy="36.914" r="5.829" fill="#F0F0F0"/><circle cx="68" cy="68" r="5.829" fill="#F0F0F0"/><circle cx="68" cy="99.086" r="5.829" fill="#F0F0F0"/><circle cx="68" cy="130.171" r="5.829" fill="#F0F0F0"/><circle cx="68" cy="161.257" r="5.829" fill="#F0F0F0"/><circle cx="68" cy="192.343" r="5.829" fill="#F0F0F0"/><circle cx="68" cy="223.429" r="5.829" fill="#F0F0F0"/><circle cx="99.086" cy="5.829" r="5.829" fill="#F0F0F0"/><circle cx="99.086" cy="36.914" r="5.829" fill="#F0F0F0"/><circle cx="99.086" cy="68" r="5.829" fill="#F0F0F0"/><circle cx="99.086" cy="99.086" r="5.829" fill="#F0F0F0"/><circle cx="99.086" cy="130.171" r="5.829" fill="#F0F0F0"/><circle cx="99.086" cy="161.257" r="5.829" fill="#F0F0F0"/><circle cx="99.086" cy="192.343" r="5.829" fill="#F0F0F0"/><circle cx="99.086" cy="223.429" r="5.829" fill="#F0F0F0"/><circle cx="130.171" cy="5.829" r="5.829" fill="#F0F0F0"/><circle cx="130.171" cy="36.914" r="5.829" fill="#F0F0F0"/><circle cx="130.171" cy="68" r="5.829" fill="#F0F0F0"/><circle cx="130.171" cy="99.086" r="5.829" fill="#F0F0F0"/><circle cx="130.171" cy="130.171" r="5.829" fill="#F0F0F0"/><circle cx="130.171" cy="161.257" r="5.829" fill="#F0F0F0"/><circle cx="130.171" cy="192.343" r="5.829" fill="#F0F0F0"/><circle cx="130.171" cy="223.429" r="5.829" fill="#F0F0F0"/></svg>