<svg width="61" height="61" viewBox="0 0 61 61" fill="none" xmlns="http://www.w3.org/2000/svg">
<path fill-rule="evenodd" clip-rule="evenodd" d="M29.7629 5.67126C29.3776 5.67126 29.0655 5.98351 29.0655 6.36862V8.15246C29.0655 8.1525 29.0655 8.15253 29.0655 8.15253C28.8884 19.1998 26.9742 43.1375 19.3179 50.51L22.5079 54.0546L31.9013 54.9406C34.5004 55.2363 39.9827 55.6498 41.1169 54.9406C42.2512 54.2318 42.1804 51.6916 42.0033 50.51C38.4806 46.8701 31.5621 33.4163 31.894 8.6176C31.8989 8.58525 31.901 8.55216 31.901 8.51847V8.15627C31.901 8.15498 31.9013 8.15372 31.9013 8.15246H31.901V6.36862C31.901 5.98351 31.5889 5.67126 31.2036 5.67126H29.7629Z" fill="#FCD507"/>
<path fill-rule="evenodd" clip-rule="evenodd" d="M36.1428 6.38025C35.7579 6.38025 35.4455 6.69249 35.4455 7.07761V8.86204C35.1502 16.8376 37.3953 35.4461 48.7378 46.0794L52.991 41.6487V38.6358C48.915 37.7498 40.1244 30.5542 37.5724 8.86145V7.07761C37.5724 6.69249 37.26 6.38025 36.8751 6.38025H36.1428Z" fill="#FCD507"/>
<path fill-rule="evenodd" clip-rule="evenodd" d="M25.0005 6.38025C25.3858 6.38025 25.6979 6.69249 25.6979 7.07761V8.86204C25.9932 16.8377 23.7481 35.4461 12.4059 46.0794L8.15234 41.6487V38.6358C12.2288 37.7498 21.0193 30.5542 23.5713 8.86145V7.07761C23.5713 6.69249 23.8833 6.38025 24.2686 6.38025H25.0005Z" fill="#FCD507"/>
<path fill-rule="evenodd" clip-rule="evenodd" d="M30.4833 60.9665C47.3189 60.9665 60.9665 47.3189 60.9665 30.4833C60.9665 13.6478 47.3189 0 30.4833 0C13.648 0 0 13.6478 0 30.4833C0 47.3189 13.648 60.9665 30.4833 60.9665ZM30.4833 53.1687C44.1867 53.1687 55.2953 42.0598 55.2953 28.3565C55.2953 14.6533 44.1867 3.54457 30.4833 3.54457C16.7802 3.54457 5.67127 14.6533 5.67127 28.3565C5.67127 42.0598 16.7802 53.1687 30.4833 53.1687Z" fill="#FCD507"/>
</svg>
