<svg width="36" height="36" viewBox="0 0 36 36" fill="none" xmlns="http://www.w3.org/2000/svg"><circle cx="18" cy="18" r="18" fill="#FCD507"/><g clip-path="url(#clip0)" fill="#000"><path d="M18.469 10.386h.039c1.904 0 3.688.736 5.027 2.075a7.065 7.065 0 012.079 5.066.781.781 0 00.777.785h.004a.78.78 0 00.781-.777 8.616 8.616 0 00-2.537-6.179 8.607 8.607 0 00-6.174-2.532.781.781 0 00.004 1.562zm9.529 13.73a2.959 2.959 0 00-.907-2.033c-1.091-1.052-2.006-1.66-2.877-1.911-1.201-.347-2.314-.032-3.306.938l-.005.004-1.057 1.05c-.657-.37-1.933-1.18-3.33-2.577l-.102-.103c-1.388-1.387-2.205-2.67-2.576-3.33l1.048-1.056a.189.189 0 00.005-.005c.97-.993 1.285-2.105.938-3.306-.252-.872-.86-1.786-1.912-2.877a2.958 2.958 0 00-2.032-.907 2.959 2.959 0 00-2.093.758l-.023.02a.755.755 0 00-.03.03C8.592 9.956 7.99 11.562 8 13.452c.016 3.212 1.781 6.885 4.722 9.826l.007.007c.553.552 1.18 1.098 1.866 1.624a.781.781 0 00.95-1.24 17.467 17.467 0 01-1.718-1.496l-.008-.007c-2.651-2.655-4.242-5.915-4.256-8.722-.008-1.456.43-2.67 1.266-3.516l.006-.005a1.405 1.405 0 011.958.07c2.022 2.098 1.876 3.088.982 4.005l-1.448 1.459a.781.781 0 00-.16.868c.038.083.927 2.048 3.142 4.263l.103.103c2.215 2.215 4.18 3.104 4.262 3.14a.78.78 0 00.869-.158l1.459-1.448c.916-.894 1.907-1.04 4.004.982.55.53.58 1.39.07 1.957l-.005.006c-.838.83-2.04 1.267-3.48 1.267h-.036c-1.151-.006-2.484-.321-3.855-.912a.781.781 0 00-.619 1.434c1.585.684 3.087 1.034 4.466 1.04h.044c1.872 0 3.461-.6 4.6-1.738l.028-.03.02-.023a2.96 2.96 0 00.759-2.093z"/><path d="M22.432 13.568c-.838-.838-1.643-1.06-2.03-1.167a.781.781 0 10-.416 1.506c.316.087.794.22 1.34.766.527.527.667 1.002.76 1.316l.01.038a.782.782 0 001.499-.443l-.01-.036c-.121-.41-.345-1.172-1.153-1.98z"/></g><defs><clipPath id="clip0"><path fill="#fff" transform="translate(8 8)" d="M0 0h20v20H0z"/></clipPath></defs></svg>