<svg width="30" height="30" viewBox="0 0 30 30" fill="none" xmlns="http://www.w3.org/2000/svg"><path d="M18.212 30h1.639V19.85H30v-1.638H18.21V30zM0 19.85h10.15V30h1.638V18.212H0v1.639zm10.15-9.7H0v1.638h11.788V0H10.15v10.15zm9.7 0V0h-1.638v11.788H30V10.15H19.85zM3.108 14.312H.158v1.376h2.95v-1.376zm7.347 0H4.852v1.376h5.603v-1.376zm14.693 0h-5.603v1.376h5.603v-1.376zm4.694 0h-2.95v1.376h2.95v-1.376zM15.688.158h-1.377v2.95h1.377V.158zm0 12.04h-1.376v2.114h-2.114v1.376h2.114v2.114h1.376v-2.114h2.114v-1.376h-2.114v-2.114zm0-7.347h-1.377v5.604h1.377V4.85zm0 14.694h-1.377v5.603h1.377v-5.603zm0 7.347h-1.377v2.95h1.377v-2.95z" fill="#000"/></svg>