<svg width="30" height="30" viewBox="0 0 30 30" fill="none" xmlns="http://www.w3.org/2000/svg"><path d="M21.5 28h-14a.5.5 0 00-.5.5v1a.5.5 0 001 0V29h13.5a.5.5 0 000-1zM11 12.5a.5.5 0 00.5.5h2a.5.5 0 00.5-.5v-3a.5.5 0 00-.5-.5h-2a.5.5 0 00-.5.5v3zm1-2.5h1v2h-1v-2zM6.5 6h-6a.5.5 0 00-.5.5v10a.5.5 0 001 0V7h5.5a.5.5 0 000-1zM24 24.5a.5.5 0 00.5.5h2a.5.5 0 00.5-.5v-3a.5.5 0 00-.5-.5h-2a.5.5 0 00-.5.5v3zm1-2.5h1v2h-1v-2zM2.5 18C.028 18 0 24.435 0 24.5c0 1.207.86 2.217 2 2.45v2.55a.5.5 0 001 0v-2.55c1.14-.233 2-1.242 2-2.45 0-.065-.029-6.5-2.5-6.5zm0 8c-.827 0-1.5-.673-1.5-1.5 0-2.491.669-5.5 1.5-5.5S4 22.009 4 24.5c0 .827-.673 1.5-1.5 1.5zm3-11h-2a.5.5 0 00-.5.5v1a.5.5 0 001 0V16h1v2.5a.5.5 0 001 0v-3a.5.5 0 00-.5-.5zm19-2h2a.5.5 0 00.5-.5v-3a.5.5 0 00-.5-.5h-2a.5.5 0 00-.5.5v3a.5.5 0 00.5.5zm.5-3h1v2h-1v-2z" fill="#000"/><path d="M5.5 9h-2a.5.5 0 00-.5.5v3a.5.5 0 00.5.5h2a.5.5 0 00.5-.5v-3a.5.5 0 00-.5-.5zM5 12H4v-2h1v2zm11 .5a.5.5 0 00.5.5h2a.5.5 0 00.5-.5v-3a.5.5 0 00-.5-.5h-2a.5.5 0 00-.5.5v3zm1-2.5h1v2h-1v-2zm12.5-4h-6a.5.5 0 000 1H29v20.092a1.48 1.48 0 00-.757-.07A1.986 1.986 0 0026.5 26c-.741 0-1.398.401-1.743 1.023A1.502 1.502 0 0023 28.5c0 .827.673 1.5 1.5 1.5h4c.827 0 1.5-.673 1.5-1.5v-22a.5.5 0 00-.5-.5zm-1 23h-4a.5.5 0 010-1c.096 0 .187.027.27.081a.502.502 0 00.759-.307A.994.994 0 0126.5 27c.466 0 .866.319.971.774a.499.499 0 00.758.307c.326-.21.771.047.771.419a.5.5 0 01-.5.5zm-12-22h2a.5.5 0 00.5-.5v-3a.5.5 0 00-.5-.5h-2a.5.5 0 00-.5.5v3a.5.5 0 00.5.5zm.5-3h1v2h-1V4zm-1 14.5a.5.5 0 00.5.5h2a.5.5 0 00.5-.5v-3a.5.5 0 00-.5-.5h-2a.5.5 0 00-.5.5v3zm1-2.5h1v2h-1v-2zm-5.5-9h2a.5.5 0 00.5-.5v-3a.5.5 0 00-.5-.5h-2a.5.5 0 00-.5.5v3a.5.5 0 00.5.5zm.5-3h1v2h-1V4zm2.645 20.145a.526.526 0 00-.145.355c0 .13.055.26.145.355.095.09.225.145.355.145.13 0 .26-.055.355-.145a.526.526 0 00.145-.355c0-.13-.055-.26-.145-.355a.523.523 0 00-.71 0zM11 18.5a.5.5 0 00.5.5h2a.5.5 0 00.5-.5v-3a.5.5 0 00-.5-.5h-2a.5.5 0 00-.5.5v3zm1-2.5h1v2h-1v-2z" fill="#000"/><path d="M10 21.5a.5.5 0 00.5.5H12v4.5a.5.5 0 001 0V22h4v4.5a.5.5 0 001 0V22h1.5a.5.5 0 000-1h-9a.5.5 0 00-.5.5zm14-3a.5.5 0 00.5.5h2a.5.5 0 00.5-.5v-3a.5.5 0 00-.5-.5h-2a.5.5 0 00-.5.5v3zm1-2.5h1v2h-1v-2z" fill="#000"/><path d="M21.5 0h-13a.5.5 0 00-.5.5v26a.5.5 0 001 0V1h12v25.5a.5.5 0 001 0V.5a.5.5 0 00-.5-.5z" fill="#000"/></svg>