<svg width="30" height="30" viewBox="0 0 30 30" fill="none" xmlns="http://www.w3.org/2000/svg"><g clip-path="url(#clip0)" fill="#000"><path d="M29.918 29.226l-10.5-16A.5.5 0 0019 13h-8a.5.5 0 00-.418.226l-10.5 16A.5.5 0 00.5 30h29a.5.5 0 00.418-.774zM11.27 14h.484L3.9 29H1.427l9.843-15zm4.23 15v-2h-1v2H5.03l7.85-15h1.62v.5h1V14h1.618l7.85 15H15.5zm10.6 0l-7.85-15h.484l9.84 15H26.1z"/><path d="M14.5 15h1v1h-1v-1zm0 2h1v1.5h-1V17zm0 2.5h1v2h-1v-2zm0 3.5h1v2.5h-1V23zm.5-11a.5.5 0 00.384-.18c.421-.504 4.116-4.997 4.116-7.32a4.5 4.5 0 00-9 0c0 2.323 3.695 6.816 4.116 7.32A.5.5 0 0015 12zm0-11a3.505 3.505 0 013.5 3.5c0 1.49-2.256 4.64-3.5 6.207-1.244-1.566-3.5-4.715-3.5-6.207A3.505 3.505 0 0115 1z"/><path d="M17 4a2 2 0 10-4 0 2 2 0 004 0zm-3 0a1 1 0 112 0 1 1 0 01-2 0z"/></g><defs><clipPath id="clip0"><path fill="#fff" d="M0 0h30v30H0z"/></clipPath></defs></svg>