<svg width="30" height="30" viewBox="0 0 30 30" fill="none" xmlns="http://www.w3.org/2000/svg"><path d="M29.531 7.5v-.938h-1.875V.47h-.937v15.469c0 4.394-3.575 7.968-7.969 7.968H8.906v-1.875h1.406v-.937H8.906V19.22h8.906a4.224 4.224 0 004.22-4.22V.469h-.938v6.093H11.25c-4.911 0-8.906 3.996-8.906 8.907v2.812H.469v.938h1.875v4.687H.469v.938h1.875v4.687h.937V15.47c0-4.394 3.575-7.969 7.969-7.969h9.844v1.875h-.469v.938h.469v1.874h-8.907a4.224 4.224 0 00-4.218 4.22V29.53h.937v-4.687h9.844c1.551 0 3.01-.4 4.281-1.1a3.3 3.3 0 00-.062.631c0 1.019.365 2.006 1.028 2.78l1.897 2.213a.468.468 0 00.712 0l1.897-2.214a4.274 4.274 0 001.028-2.779 3.285 3.285 0 00-3.281-3.281 3.26 3.26 0 00-.262.013 8.847 8.847 0 001.668-5.17v-2.812h1.875v-.938h-1.875V7.5h1.875zm-17.343 5.625h8.906V15a3.285 3.285 0 01-3.282 3.281H8.906v-1.875a3.285 3.285 0 013.281-3.281zm16.406 11.25c0 .795-.285 1.565-.802 2.169l-1.542 1.798-1.542-1.798a3.336 3.336 0 01-.802-2.169 2.347 2.347 0 012.344-2.344 2.347 2.347 0 012.344 2.344z" fill="#000"/><path d="M7.79 10.681a6.598 6.598 0 00-1.38 1.397l.758.553c.332-.457.73-.861 1.183-1.2l-.561-.75zM5.156 17.6h.938v1.831h-.938V17.6zm.003-1.844l.937.025a5.606 5.606 0 01.296-1.657l-.887-.302a6.55 6.55 0 00-.346 1.934zm-.003 5.506h.938v1.831h-.938v-1.831zm0 3.663h.938v1.831h-.938v-1.831zm11.807-15.55h1.831v.938h-1.831v-.938zm-3.663 0h1.831v.938H13.3v-.938zm-1.85.005c-.66.027-1.31.152-1.929.372l.314.883a5.614 5.614 0 011.652-.318l-.037-.936zM5.156 28.594h.938v.937h-.938v-.937zM24.281 18.13l-.857-.38a5.638 5.638 0 01-.932 1.449l.701.621a6.551 6.551 0 001.088-1.69zm.563-2.661v-1.205h-.938v1.205c0 .206-.01.413-.033.617l.932.102a6.58 6.58 0 00.039-.72zm-.938-12.455h.938v1.875h-.938V3.014zm0 7.5h.938v1.875h-.938v-1.875zm0-3.75h.938v1.875h-.938V6.764zm0-6.295h.938v.67h-.938v-.67zm-7.968 20.625h1.874v.937h-1.875v-.937zm3.844.765a6.522 6.522 0 001.864-.755l-.48-.805a5.58 5.58 0 01-1.598.647l.214.913zm-7.594-.765h1.874v.937h-1.874v-.937zM3.394 8.743a.468.468 0 00.712 0l1.897-2.214A4.274 4.274 0 007.031 3.75 3.285 3.285 0 003.75.469 3.285 3.285 0 00.469 3.75c0 1.019.365 2.006 1.028 2.78l1.897 2.213zm.356-7.337A2.346 2.346 0 016.094 3.75c0 .795-.285 1.565-.802 2.169L3.75 7.717 2.208 5.919a3.337 3.337 0 01-.802-2.169A2.346 2.346 0 013.75 1.406z" fill="#000"/><path d="M3.75 5.156c.775 0 1.406-.63 1.406-1.406 0-.775-.63-1.406-1.406-1.406-.775 0-1.406.63-1.406 1.406 0 .775.63 1.406 1.406 1.406zm0-1.875a.47.47 0 11-.002.94.47.47 0 01.002-.94zm22.5 22.5c.775 0 1.406-.63 1.406-1.406 0-.775-.63-1.406-1.406-1.406-.775 0-1.406.63-1.406 1.406 0 .775.63 1.406 1.406 1.406zm0-1.875a.47.47 0 11-.002.94.47.47 0 01.002-.94z" fill="#000"/></svg>